<svg width="50" height="50" viewBox="0 0 50 50" fill="none" xmlns="http://www.w3.org/2000/svg">
<g clip-path="url(#clip0_134_20)">
<rect y="6" width="50" height="38" rx="7" fill="#012169"/>
<rect x="20" y="6" width="9" height="38" fill="white"/>
<path d="M1.23294 12.213C0.327003 11.5799 0.106382 10.3319 0.740335 9.42652L1.44585 8.41894C2.07941 7.51413 3.3265 7.29424 4.23131 7.92779L47.9862 38.5653C48.9063 39.2096 49.1156 40.4851 48.4495 41.3895L48.1747 41.7627C48.0589 41.9201 47.9206 42.0596 47.7643 42.1768L47.1586 42.631C46.4673 43.1495 45.5212 43.1654 44.8129 42.6704L1.23294 12.213Z" fill="white"/>
<path d="M0.682149 10.8669C0.329867 10.6205 0.24415 10.1351 0.490731 9.78293V9.78293C0.737222 9.4309 1.22241 9.34535 1.57444 9.59184L24.3546 25.5426C24.6581 25.7552 24.7238 26.1777 24.499 26.4724V26.4724C24.4367 26.554 24.3561 26.6198 24.2636 26.6643L24.1924 26.6986C23.8724 26.8529 23.494 26.8223 23.2029 26.6187L0.682149 10.8669Z" fill="#C8102E"/>
<path d="M24.8515 25.3084C24.5272 25.0816 24.4483 24.6348 24.6753 24.3107V24.3107C24.9022 23.9867 25.3488 23.9079 25.6729 24.1348L48.5201 40.1326C48.8144 40.3387 48.8773 40.7486 48.6584 41.0334V41.0334C48.6141 41.0911 48.5601 41.1407 48.4989 41.18L48.4693 41.1989C48.1854 41.3811 47.8195 41.3738 47.5431 41.1804L24.8515 25.3084Z" fill="#C8102E"/>
<path d="M45.0277 7.54018C45.8644 6.94909 47.0124 7.08569 47.6869 7.8566L48.5418 8.83358C49.322 9.72525 49.1604 11.0959 48.1942 11.7816L5.0092 42.429C4.15742 43.0334 2.98392 42.8807 2.31526 42.0783L1.20505 40.7461C1.06955 40.5835 0.965642 40.3969 0.898695 40.1961V40.1961C0.661915 39.486 0.918237 38.7045 1.52965 38.2725L45.0277 7.54018Z" fill="white"/>
<path d="M46.4874 7.61747C46.8278 7.37889 47.2971 7.46153 47.5355 7.80201V7.80201C47.7738 8.14236 47.6911 8.61148 47.3507 8.8498L24.5283 24.8302C24.2364 25.0346 23.833 24.9547 23.6412 24.6544V24.6544C23.5866 24.569 23.5535 24.4716 23.5449 24.3706L23.5378 24.2885C23.5086 23.9472 23.6632 23.6162 23.9436 23.4196L46.4874 7.61747Z" fill="#C8102E"/>
<path d="M24.5591 25.9982C25.1189 25.6093 25.8395 26.1932 25.5751 26.8215V26.8215C25.526 26.9382 25.4454 27.0389 25.3422 27.1123L3.65163 42.5413C3.28114 42.8048 2.76553 42.7048 2.52046 42.3218V42.3218V42.3218C2.24294 41.9623 2.32299 41.4437 2.696 41.1846L24.5591 25.9982Z" fill="#C8102E"/>
<rect y="19" width="50" height="12.8" fill="white"/>
<rect y="22" width="50" height="7" fill="#C8102E"/>
<rect x="22" y="6" width="5" height="38" fill="#C8102E"/>
</g>
<defs>
<clipPath id="clip0_134_20">
<rect width="50" height="50" fill="white"/>
</clipPath>
</defs>
</svg>
